:FULLY-SPECIFIED
:FORCE-ALL-JOINTS-BE-3DOF
:DEGREES
577
root 7.03232 16.3883 -3.4718 -172.092 80.523 -178.507
lfemur -17.3288 3.52392 -18.2344
ltibia 46.3101 0 0
lfoot -33.9125 6.00577 0
ltoes -3.15791 0 0
rfemur -46.1046 -8.62207 10.6945
rtibia 40.1893 0 0
rfoot 15.8847 8.75684 0
rtoes -30.5423 0 0
lowerback 6.13191 -0.846481 -3.26657
upperback 2.35819 -1.23327 3.2267
thorax -0.869455 -0.638452 5.28431
lowerneck -4.62405 -13.8671 -4.32831
upperneck 10.4349 -18.8239 5.57198
head 4.80882 -9.09627 1.20214
lclavicle 4.79372e-15 -2.44857e-14 0
lhumerus -37.5917 -16.0983 91.9124
lradius 53.6184 0 0
lwrist 21.6976 0 0
lhand -21.9958 -5.14855 0
lfingers 7.12502 0 0
lthumb 4.41392 24.8126 0
rclavicle 4.79372e-15 -2.44857e-14 0
rhumerus 28.3127 18.0686 -72.5604
rradius 135.469 0 0
rwrist -42.3872 0 0
rhand -25.8533 -20.1051 0
rfingers 7.12502 0 0
rthumb 0.687415 -770.086 0
578
root 6.99246 16.3872 -3.4588 -172.544 81.6833 -178.838
lfemur -17.2394 3.30133 -18.2243
ltibia 46.1724 0 0
lfoot -33.7172 6.28013 0
ltoes -3.07725 0 0
rfemur -46.0431 -8.85606 10.7788
rtibia 41.543 0 0
rfoot 15.6698 8.25505 0
rtoes -29.882 0 0
lowerback 6.04537 -0.819425 -3.39363
upperback 2.37137 -1.20206 3.18466
thorax -0.807621 -0.624777 5.30821
lowerneck -4.63787 -13.8913 -4.35558
upperneck 10.5205 -18.8668 5.6501
head 4.84871 -9.11073 1.21947
lclavicle 3.10083e-15 -2.21944e-14 0
lhumerus -36.7599 -16.5499 91.2041
lradius 53.5044 0 0
lwrist 21.9948 0 0
lhand -22.0107 -4.97113 0
lfingers 7.12502 0 0
lthumb 4.39963 24.9936 0
rclavicle 3.10083e-15 -2.21944e-14 0
rhumerus 28.1934 18.2302 -72.5707
rradius 135.675 0 0
rwrist -42.2055 0 0
rhand -25.8026 -19.9574 0
rfingers 7.12502 0 0
rthumb 0.736382 -769.939 0
579
root 6.95312 16.3814 -3.44623 -172.745 82.7312 -178.912
lfemur -17.1851 3.09192 -18.2134
ltibia 46.1146 0 0
lfoot -33.5316 6.54396 0
ltoes -2.96518 0 0
rfemur -45.9986 -9.10336 10.8622
rtibia 42.9831 0 0
rfoot 15.3872 7.76895 0
rtoes -29.1978 0 0
lowerback 5.96932 -0.793126 -3.51312
upperback 2.39077 -1.16941 3.14671
thorax -0.74508 -0.609651 5.3317
lowerneck -4.65155 -13.9125 -4.38009
upperneck 10.6085 -18.9065 5.73353
head 4.88984 -9.12322 1.23812
lclavicle 1.74734e-15 -1.97846e-14 0
lhumerus -35.9217 -17.0308 90.5197
lradius 53.3977 0 0
lwrist 22.311 0 0
lhand -22.0134 -4.77993 0
lfingers 7.12502 0 0
lthumb 4.39712 25.1876 0
rclavicle 1.74734e-15 -1.97846e-14 0
rhumerus 28.0191 18.3731 -72.6157
rradius 135.853 0 0
rwrist -42.0543 0 0
rhand -25.7607 -19.8187 0
rfingers 7.12502 0 0
rthumb 0.776897 -769.8 0
580
root 6.91332 16.3725 -3.43437 -172.601 83.6593 -178.638
lfemur -17.1585 2.91372 -18.2055
ltibia 46.1125 0 0
lfoot -33.3539 6.81432 0
ltoes -2.81193 0 0
rfemur -45.9738 -9.3663 10.9597
rtibia 44.4919 0 0
rfoot 15.0498 7.31932 0
rtoes -28.4789 0 0
lowerback 5.89978 -0.769877 -3.62719
upperback 2.41268 -1.13903 3.11032
thorax -0.683171 -0.595049 5.35355
lowerneck -4.66827 -13.9272 -4.39892
upperneck 10.7012 -18.9386 5.81923
head 4.93275 -9.13152 1.25691
lclavicle 7.47208e-16 -1.72803e-14 0
lhumerus -35.0739 -17.5514 89.8612
lradius 53.3001 0 0
lwrist 22.6371 0 0
lhand -21.9966 -4.57547 0
lfingers 7.12502 0 0
lthumb 4.41344 25.3937 0
rclavicle 7.47208e-16 -1.72803e-14 0
rhumerus 27.8005 18.4877 -72.6862
rradius 135.995 0 0
rwrist -41.9426 0 0
rhand -25.7267 -19.6901 0
rfingers 7.12502 0 0
rthumb 0.809693 -769.671 0
581
root 6.87208 16.3617 -3.42355 -172.015 84.46 -177.925
lfemur -17.152 2.78477 -18.2041
ltibia 46.1417 0 0
lfoot -33.1826 7.10825 0
ltoes -2.60775 0 0
rfemur -45.9711 -9.6472 11.0865
rtibia 46.0519 0 0
rfoot 14.6704 6.92694 0
rtoes -27.7144 0 0
lowerback 5.83276 -0.75197 -3.73797
upperback 2.43337 -1.11464 3.07293
thorax -0.623231 -0.582947 5.37255
lowerneck -4.69121 -13.932 -4.40913
upperneck 10.8013 -18.9587 5.90414
head 4.97801 -9.13339 1.27467
lclavicle 1.14406e-16 -1.47059e-14 0
lhumerus -34.2134 -18.1222 89.2307
lradius 53.2131 0 0
lwrist 22.964 0 0
lhand -21.953 -4.35829 0
lfingers 7.12502 0 0
lthumb 4.45561 25.611 0
rclavicle 1.14406e-16 -1.47059e-14 0
rhumerus 27.548 18.5641 -72.7728
rradius 136.09 0 0
rwrist -41.8792 0 0
rhand -25.7 -19.5728 0
rfingers 7.12502 0 0
rthumb 0.835507 -769.553 0
582
root 6.82841 16.3508 -3.41406 -170.891 85.1258 -176.68
lfemur -17.1583 2.72311 -18.213
ltibia 46.1777 0 0
lfoot -33.0159 7.44281 0
ltoes -2.34289 0 0
rfemur -45.9931 -9.94838 11.2579
rtibia 47.6453 0 0
rfoot 14.2619 6.6126 0
rtoes -26.8934 0 0
lowerback 5.76429 -0.7417 -3.84763
upperback 2.44912 -1.09995 3.03199
thorax -0.5666 -0.575317 5.38749
lowerneck -4.72355 -13.9236 -4.40778
upperneck 10.9113 -18.9625 5.98519
head 5.02616 -9.12661 1.2902
lclavicle -1.37103e-16 -1.20854e-14 0
lhumerus -33.3368 -18.7536 88.6299
lradius 53.1386 0 0
lwrist 23.2826 0 0
lhand -21.8753 -4.12893 0
lfingers 7.12502 0 0
lthumb 4.53068 25.8386 0
rclavicle -1.37103e-16 -1.20854e-14 0
rhumerus 27.2722 18.5926 -72.8664
rradius 136.128 0 0
rwrist -41.8731 0 0
rhand -25.6797 -19.468 0
rfingers 7.12502 0 0
rthumb 0.855075 -769.448 0
583
root 6.78133 16.341 -3.4062 -169.135 85.6495 -174.813
lfemur -17.1697 2.74678 -18.2359
ltibia 46.1961 0 0
lfoot -32.8522 7.83504 0
ltoes -2.0076 0 0
rfemur -46.0423 -10.2722 11.4888
rtibia 49.2547 0 0
rfoot 13.8371 6.39709 0
rtoes -26.0053 0 0
lowerback 5.69038 -0.741359 -3.9583
upperback 2.45619 -1.09868 2.98494
thorax -0.514617 -0.574137 5.39715
lowerneck -4.76848 -13.8984 -4.39193
upperneck 11.0336 -18.9454 6.05933
head 5.07776 -9.10893 1.30231
lclavicle 6.64752e-18 -9.44299e-15 0
lhumerus -32.4411 -19.4562 88.061
lradius 53.0781 0 0
lwrist 23.5836 0 0
lhand -21.7561 -3.88791 0
lfingers 7.12502 0 0
lthumb 4.64569 26.0759 0
rclavicle 6.64752e-18 -9.44299e-15 0
rhumerus 26.9837 18.5633 -72.9575
rradius 136.101 0 0
rwrist -41.9331 0 0
rhand -25.6652 -19.3768 0
rfingers 7.12502 0 0
rthumb 0.869132 -769.356 0
584
root 6.72985 16.334 -3.40028 -166.651 86.0233 -172.233
lfemur -17.1789 2.87383 -18.2766
ltibia 46.1726 0 0
lfoot -32.6899 8.30198 0
ltoes -1.59211 0 0
rfemur -46.1212 -10.6209 11.7946
rtibia 50.8622 0 0
rfoot 13.4088 6.30118 0
rtoes -25.039 0 0
lowerback 5.60705 -0.75324 -4.07213
upperback 2.45087 -1.11455 2.92923
thorax -0.468619 -0.581379 5.4003
lowerneck -4.82918 -13.8532 -4.35865
upperneck 11.1708 -18.9032 6.1235
head 5.13336 -9.07814 1.30982
lclavicle 5.59623e-16 -6.80293e-15 0
lhumerus -31.5231 -20.2402 87.5258
lradius 53.0333 0 0
lwrist 23.8582 0 0
lhand -21.5883 -3.63578 0
lfingers 7.12502 0 0
lthumb 4.80769 26.3217 0
rclavicle 5.59623e-16 -6.80293e-15 0
rhumerus 26.6929 18.4664 -73.0369
rradius 135.996 0 0
rwrist -42.0681 0 0
rhand -25.6556 -19.3005 0
rfingers 7.12502 0 0
rthumb 0.878415 -769.28 0
585
root 6.673 16.3312 -3.39661 -163.342 86.24 -168.847
lfemur -17.1784 3.12228 -18.3386
ltibia 46.0828 0 0
lfoot -32.5274 8.8607 0
ltoes -1.08669 0 0
rfemur -46.2324 -10.9969 12.1902
rtibia 52.4503 0 0
rfoot 12.99 6.34567 0
rtoes -23.9839 0 0
lowerback 5.51032 -0.779638 -4.19128
upperback 2.42942 -1.15127 2.86231
thorax -0.429947 -0.59902 5.39575
lowerneck -4.90883 -13.7846 -4.30499
upperneck 11.3254 -18.8314 6.17465
head 5.19352 -9.03199 1.31155
lclavicle 1.53579e-15 -4.18937e-15 0
lhumerus -30.5796 -21.1162 87.0263
lradius 53.0059 0 0
lwrist 24.0971 0 0
lhand -21.3644 -3.37306 0
lfingers 7.12502 0 0
lthumb 5.0237 26.5754 0
rclavicle 1.53579e-15 -4.18937e-15 0
rhumerus 26.4105 18.2923 -73.0954
rradius 135.806 0 0
rwrist -42.2871 0 0
rhand -25.6501 -19.2401 0
rfingers 7.12502 0 0
rthumb 0.883657 -769.219 0
586
root 6.60978 16.3341 -3.39549 -159.113 86.292 -164.565
lfemur -17.1606 3.51019 -18.4257
ltibia 45.9024 0 0
lfoot -32.3628 9.52823 0
ltoes -0.481565 0 0
rfemur -46.3784 -11.4024 12.691
rtibia 54.0013 0 0
rfoot 12.5934 6.55134 0
rtoes -22.829 0 0
lowerback 5.39622 -0.822844 -4.31788
upperback 2.38813 -1.21255 2.78162
thorax -0.399937 -0.629034 5.38227
lowerneck -5.01062 -13.6891 -4.22802
upperneck 11.4998 -18.7256 6.2097
head 5.25877 -8.96826 1.30631
lclavicle 2.94911e-15 -1.6265e-15 0
lhumerus -29.6074 -22.0946 86.5645
lradius 52.9975 0 0
lwrist 24.2912 0 0
lhand -21.0772 -3.10029 0
lfingers 7.12502 0 0
lthumb 5.30077 26.836 0
rclavicle 2.94911e-15 -1.6265e-15 0
rhumerus 26.147 18.031 -73.1235
rradius 135.519 0 0
rwrist -42.5988 0 0
rhand -25.6481 -19.1968 0
rfingers 7.12502 0 0
rthumb 0.885596 -769.176 0
